<svg id="katman_1" data-name="katman 1" xmlns="http://www.w3.org/2000/svg" width="64" height="64" viewBox="0 0 64 64">
  <defs>
    <style>
      .cls-1 {
        fill: #0f1829;
      }

      .cls-2 {
        fill: #fff;
      }
    </style>
  </defs>
  <rect class="cls-1" width="64" height="64" rx="31.99997"/>
  <g>
    <path class="cls-2" d="M28.10591,14.3604c-.18915.26418-3.84381,6.66012-3.98809,7.302l3.89974,11.68354-8.30471.16809-2.06958,3.85583.99215,1.53463,11.30865.107,2.12319,6.479h7.24647Z"/>
    <path class="cls-2" d="M26.99259,13.64855a.32033.32033,0,0,0-.42256.00565c-.19775.15751-.383.33135-.56792.50422-.33518.31329-.6604.48063-.98737.80238a2.77552,2.77552,0,0,1-1.05557.656,1.65117,1.65117,0,0,0-.87464.898.58012.58012,0,0,0-.038.42713,1.28873,1.28873,0,0,1-.40087,1.3674c-.53525.53077-.98007,1.10449-1.46034,1.68348a5.68865,5.68865,0,0,0-1.23282,2.62406,1.90663,1.90663,0,0,1-.60979,1.0705,6.75773,6.75773,0,0,0-1.135,1.29738,9.29953,9.29953,0,0,0-.85649,1.54622c-.11714.27135-.34316.50822-.47227.77377-.25757.52975-.53741.52283-1.23237.84779a3.36811,3.36811,0,0,0-1.73667,1.74781,2.47831,2.47831,0,0,0-.11023.65037A5.92688,5.92688,0,0,1,13.46,31.739a2.775,2.775,0,0,1-.89839,1.30232,9.4523,9.4523,0,0,0-2.3657,3.44665c-.03644.09118-.07058.18322-.10362.27568A6.194,6.194,0,0,0,9.7486,38.714c-.02987,1.3569-.70158.20863-1.96189.57417-2.01385.584-1.57716,3.88813-.06388,3.91331.36247.006.26154-.03708.4621.04446.28839.26608.51535-.29047.7688-.041.60676.47276,1.085-.1467,1.7557-.13465.87482-.3049-.03235-1.10269.61709-1.52.21942-.17709.26921-.49775.53774-.65357a.37513.37513,0,0,1,.42112-.02635,2.38409,2.38409,0,0,0,1.59887.255.55487.55487,0,0,1,.38.0756q.64993.37247,1.30689.73273c.17148.09457.30512.21044.28581.42683-.02093.2348-.20007.32236-.38978.37668a2.851,2.851,0,0,1-.76039.03878,2.36151,2.36151,0,0,0-1.14648.25305c-.09545.05323-.26783.11791-.1855.26495.07249.12939.1804.29737.38415.23085a2.15019,2.15019,0,0,1,1.06826.04645c-.05105.17084-.24715.2968-.08941.44151.1384.127.30544.046.45288-.039a5.28973,5.28973,0,0,1,.99159-.29763c.17964-.06151.2872.06912.32147.24a.418.418,0,0,1-.08167.42155c-.29542.35538-.30092.16376-.381.57384-.05794.29668-.17432.35225-.4538.23351a1.31682,1.31682,0,0,1-.21466-.11.62443.62443,0,0,0-.7461.03324c-.18128.15006-.19222.15224.00734.30523a.332.332,0,0,1-.32164.02429,1.54382,1.54382,0,0,0-1.20759.16929c-.13025.06776-.304.12589-.13872.33169.08886.11072-.05135.12533-.09888.16877-.07962.07288-.23142.12318-.162.25351.08593.16127.21709.034.317-.01084a1.81191,1.81191,0,0,1,.52629-.15247c.05944-.00723.135-.01856.1643.04487.0358.0774-.04706.09751-.09281.132-.008.00606-.01881.00862-.02666.01487-.11755.0937-.36815.14622-.24362.34378.10695.16971.31929.06871.46922-.01554.16822-.09453.32017-.21756.48376-.321.0796-.05029.18469-.08659.24925.00407.06579.09242-.04508.13545-.09522.19319-.09978.11482-.34039.2025-.2264.37537.13251.201.33156.03512.48971-.04055a5.61157,5.61157,0,0,1,1.75535-.50754.76788.76788,0,0,0,.67613-.48058c.35457-.768.93205-.744,1.16431-1.55989a6.80343,6.80343,0,0,0,.14953-1.05634,10.125,10.125,0,0,1,.23649-1.53847.56682.56682,0,0,0-.02537-.41993,5.79379,5.79379,0,0,0-.95137-1.13156,2.88013,2.88013,0,0,1-.55465-.93354c-.06756-.13718-.26565-.46293-.32494-.60369a1.415,1.415,0,0,0-.52642-.69286c-.29448-.18134-.10232-.13519-.35031-.40835-.09976-.10989-.28-.33248-.17846-.47659a4.4528,4.4528,0,0,0,.88605-1.75083,2.1259,2.1259,0,0,1,.40412-.909,1.4232,1.4232,0,0,0,.20435-.37318,3.33986,3.33986,0,0,1,.60086-.69261,3.4287,3.4287,0,0,1,.68028-.736,1.83619,1.83619,0,0,0,.32015-.472c.12149-.21417.2319-.41873.33612-.6291.3464-.69938.79373-1.34448,1.08595-2.0739a24.47479,24.47479,0,0,0,.94273-3.35145A11.2231,11.2231,0,0,1,21.8054,24.315a9.027,9.027,0,0,0,.16777-.99144,4.26887,4.26887,0,0,1,.81964-1.27936,8.75148,8.75148,0,0,0,.91816-1.98814,12.58734,12.58734,0,0,1,.93154-1.91809l.00836-.01611.0151-.02274a6.97727,6.97727,0,0,1,.46432-.662,11.48286,11.48286,0,0,0,1.0074-1.41586.10263.10263,0,0,1,.01741-.02808,5.65661,5.65661,0,0,0,.296-.59171c.239-.563.37279-.95869.64387-1.49815C27.15023,13.79337,27.086,13.71774,26.99259,13.64855Z"/>
    <path class="cls-2" d="M52.49886,15.139,45.81075,30.29849l6.68811,15.48586-10.53012,0L35.702,29.94192l6.26678-15.12931Z"/>
  </g>
</svg>
