<svg id="katman_1" data-name="katman 1" xmlns="http://www.w3.org/2000/svg" width="48" height="48" viewBox="0 0 48 48">
  <defs>
    <style>
      .cls-1 {
        fill: #fff;
      }
    </style>
  </defs>
  <g>
    <path class="cls-1" d="M16.03578,11.157c-.05248.07478-.11252.14594-.1601.21781a6.32926,6.32926,0,0,1-.41034.55262,3.62328,3.62328,0,0,0-.40969.55852,1.97012,1.97012,0,0,0-.19124.52741l1.08177,3.30824-2.40356.03736-.88057,1.53156,3.81854.03529.589,1.83458h2.01012Z"/>
    <path class="cls-1" d="M36.38691,21.61629a3.19716,3.19716,0,0,1,1.0301,2.61478,3.55126,3.55126,0,0,1-1.04673,2.73639l1.379,4.58669H33.22982l-.59795-3.36091h-.299v3.36091H27.64755V20.765h5.48286A5.07817,5.07817,0,0,1,36.38691,21.61629Zm-3.58119,4.0295V23.869h-.53731v1.77679Z"/>
    <path class="cls-1" d="M16.3287,9.17875a.23022.23022,0,0,0-.3037.00406c-.14214.11321-.27526.23816-.40819.36241-.24091.22517-.47466.34544-.70967.5767a1.99488,1.99488,0,0,1-.75867.47151,1.18674,1.18674,0,0,0-.62864.64543.417.417,0,0,0-.02735.307.92624.92624,0,0,1-.28812.98281c-.3847.38148-.70441.79384-1.0496,1.21a4.08856,4.08856,0,0,0-.88607,1.886,1.37036,1.37036,0,0,1-.43828.76941,4.85661,4.85661,0,0,0-.81578.93248,6.68388,6.68388,0,0,0-.6156,1.11133c-.08419.195-.24664.36528-.33944.55614-.18513.38076-.38626.37578-.88575.60934a2.42079,2.42079,0,0,0-1.24822,1.25622,1.78143,1.78143,0,0,0-.07922.46745,4.25974,4.25974,0,0,1-.24413.854,1.99441,1.99441,0,0,1-.64571.936,6.79373,6.79373,0,0,0-1.70032,2.47725c-.02619.06553-.05073.13169-.07447.19814a4.45162,4.45162,0,0,0-.247,1.40179c-.02147.97526-.50426.15-1.41009.41268-1.44743.41977-1.13357,2.79456-.04591,2.81266.26052.00433.188-.02665.33213.032.20727.19125.3704-.20877.55257-.02944.4361.33979.77981-.10544,1.26189-.09678.62876-.21914-.02326-.79254.44353-1.09245.1577-.12728.19348-.35775.38648-.46974a.26961.26961,0,0,1,.30268-.01894,1.71357,1.71357,0,0,0,1.14917.18326.3988.3988,0,0,1,.27314.05433q.46711.26771.93931.52665c.12325.068.2193.15125.20542.30677-.015.16876-.1438.2317-.28015.27074a2.04909,2.04909,0,0,1-.54652.02787,1.69732,1.69732,0,0,0-.824.18188c-.0686.03826-.1925.08475-.13332.19043.0521.093.12966.21373.27611.16592a1.54537,1.54537,0,0,1,.76779.03339c-.03669.12278-.17763.21332-.06426.31733.09948.09126.21953.03306.3255-.028a3.80163,3.80163,0,0,1,.7127-.21392c.12912-.04421.20642.04968.23105.17246a.30046.30046,0,0,1-.0587.303c-.21233.25543-.21628.1177-.27383.41244-.04164.21324-.12529.25318-.32617.16784a.947.947,0,0,1-.15428-.079.44879.44879,0,0,0-.53625.0239c-.1303.10785-.13816.10942.00528.21938a.23861.23861,0,0,1-.23118.01745,1.10959,1.10959,0,0,0-.86794.12168c-.09362.0487-.21847.09048-.09971.2384.06387.07958-.0369.09008-.07106.1213-.05723.05238-.16634.08853-.11642.18221.06176.11591.156.02446.22783-.0078a1.30252,1.30252,0,0,1,.37826-.10958c.04272-.0052.097-.01334.11809.03225.02573.05563-.03382.07008-.06671.09484-.00577.00436-.01351.0062-.01915.01069-.08449.06734-.26461.10509-.17511.24709.07687.122.22949.04938.33725-.01118.1209-.06794.23012-.15636.3477-.23072.05721-.03615.13274-.06223.17915.00292.04728.06643-.0324.09736-.06844.13886-.07172.08253-.24466.14555-.16273.26979.09524.14446.23831.02525.352-.02914a4.033,4.033,0,0,1,1.26163-.36479.55191.55191,0,0,0,.486-.34541c.25484-.552.6699-.53477.83683-1.12116a4.88943,4.88943,0,0,0,.10748-.75923,7.27671,7.27671,0,0,1,.17-1.10576.40735.40735,0,0,0-.01824-.30183,4.16427,4.16427,0,0,0-.68378-.81329,2.07013,2.07013,0,0,1-.39865-.671c-.04855-.0986-.19093-.33273-.23355-.4339a1.01707,1.01707,0,0,0-.37835-.498c-.21166-.13033-.07355-.09716-.25179-.29349-.0717-.079-.20124-.239-.12826-.34255a3.20038,3.20038,0,0,0,.63683-1.25839,1.528,1.528,0,0,1,.29047-.65336,1.023,1.023,0,0,0,.14686-.26822,2.401,2.401,0,0,1,.43187-.4978,2.46455,2.46455,0,0,1,.48894-.529,1.31986,1.31986,0,0,0,.23011-.33922c.08732-.15393.16667-.301.24158-.45216.249-.50268.57048-.96633.78052-1.4906a17.59224,17.59224,0,0,0,.67757-2.40882,8.06677,8.06677,0,0,1,.39864-1.27679,6.49016,6.49016,0,0,0,.12058-.71259,3.06824,3.06824,0,0,1,.58911-.91952,6.29068,6.29068,0,0,0,.65992-1.429,9.04693,9.04693,0,0,1,.66953-1.3786l.006-.01158.01085-.01635a5.014,5.014,0,0,1,.33373-.4758,8.25331,8.25331,0,0,0,.72406-1.01764.07338.07338,0,0,1,.01251-.02018,4.06721,4.06721,0,0,0,.21275-.42529c.17178-.40467.26794-.689.46278-1.07678C16.442,9.28284,16.39587,9.22849,16.3287,9.17875Z"/>
    <path class="cls-1" d="M19.42794,10.94854h2.02029l.01811,7.24346h4.1944v1.54693h-6.2328Z"/>
    <rect class="cls-1" x="26.1687" y="12.41002" width="1.86984" height="7.3504"/>
    <rect class="cls-1" x="26.12716" y="10.33826" width="1.95293" height="1.64671"/>
    <path class="cls-1" d="M16.75372,20.77057l-3.20991,5.2809,3.20991,5.50829-4.54165,0L9.20438,26.041l3.00769-5.27039Z"/>
    <path class="cls-1" d="M21.68072,20.77521v7.58686h.77372V20.77525h4.66385l.02149,5.31551,0,1.73566q0,3.72987-5.07919,3.72961a6.26933,6.26933,0,0,1-3.697-.92385,3.19216,3.19216,0,0,1-1.2823-2.77155V20.77525Z"/>
    <path class="cls-1" d="M44.117,31.55322H39.47549V24.131l-1.593-.013a3.4286,3.4286,0,0,0-2.13929-3.33946l9.9392.01157.76913-.01157-.00028,3.33812H44.117Z"/>
  </g>
</svg>
