<svg id="katman_1" data-name="katman 1" xmlns="http://www.w3.org/2000/svg" width="64" height="64" viewBox="0 0 64 64">
  <defs>
    <style>
      .cls-1 {
        fill: #fff;
      }

      .cls-2 {
        fill: #0f1829;
      }
    </style>
  </defs>
  <rect class="cls-1" width="64" height="64" rx="31.99997"/>
  <g>
    <path class="cls-2" d="M30.64226,16.06191c-.18914.26418-3.8438,6.66012-3.98808,7.302l3.89973,11.68354-8.3047.16809-2.06958,3.85583.99214,1.53463,11.30865.107,2.12319,6.479h7.24648Z"/>
    <path class="cls-2" d="M29.52894,15.35006a.3203.3203,0,0,0-.42255.00564c-.19775.15751-.383.33136-.56793.50423-.33517.31329-.6604.48062-.98737.80238a2.77561,2.77561,0,0,1-1.05556.656,1.65115,1.65115,0,0,0-.87465.898.58016.58016,0,0,0-.038.42713,1.28872,1.28872,0,0,1-.40087,1.3674c-.53525.53077-.98007,1.10449-1.46033,1.68348a5.68857,5.68857,0,0,0-1.23283,2.62406,1.90659,1.90659,0,0,1-.60978,1.07049,6.75777,6.75777,0,0,0-1.135,1.29739,9.29991,9.29991,0,0,0-.8565,1.54622c-.11713.27135-.34316.50822-.47226.77377-.25757.52975-.53741.52282-1.23237.84778a3.36818,3.36818,0,0,0-1.73668,1.74782,2.47852,2.47852,0,0,0-.11022.65037,5.92754,5.92754,0,0,1-.33966,1.18825,2.77484,2.77484,0,0,1-.8984,1.30231,9.45219,9.45219,0,0,0-2.36569,3.44666c-.03644.09118-.07059.18322-.10362.27568a6.19366,6.19366,0,0,0-.34365,1.95035c-.02987,1.3569-.70159.20863-1.96189.57417-2.01386.584-1.57717,3.88813-.06388,3.91331.36247.006.26154-.03708.4621.04446.28838.26608.51535-.29047.7688-.041.60675.47276,1.085-.1467,1.7557-.13466.87481-.30489-.03236-1.10268.61709-1.51994.21942-.17709.2692-.49776.53773-.65357a.37513.37513,0,0,1,.42113-.02635,2.38409,2.38409,0,0,0,1.59887.255.55492.55492,0,0,1,.38.07559q.64992.37248,1.30689.73274c.17148.09457.30512.21044.28581.42683-.02093.23479-.20007.32236-.38979.37668a2.85133,2.85133,0,0,1-.76038.03878,2.36144,2.36144,0,0,0-1.14649.25305c-.09545.05323-.26783.11791-.1855.26495.07249.12939.1804.29737.38416.23085a2.15,2.15,0,0,1,1.06825.04645c-.051.17084-.24714.2968-.0894.44151.1384.127.30543.046.45287-.039a5.28921,5.28921,0,0,1,.99159-.29763c.17965-.06151.2872.06912.32148.24a.41809.41809,0,0,1-.08167.42156c-.29543.35538-.30092.16376-.381.57384-.05793.29668-.17432.35225-.4538.23351a1.31711,1.31711,0,0,1-.21465-.11.62443.62443,0,0,0-.7461.03324c-.18129.15006-.19222.15224.00734.30523a.332.332,0,0,1-.32165.02428,1.5438,1.5438,0,0,0-1.20758.1693c-.13025.06776-.304.12588-.13872.33169.08886.11072-.05135.12532-.09888.16877-.07962.07288-.23143.12317-.162.2535.08593.16128.21708.034.317-.01084a1.81183,1.81183,0,0,1,.52628-.15246c.05945-.00723.135-.01856.16431.04487.0358.0774-.04706.0975-.09282.13195-.008.00606-.0188.00862-.02665.01487-.11755.0937-.36816.14622-.24363.34378.107.16971.3193.0687.46922-.01555.16822-.09453.32018-.21755.48377-.321.0796-.0503.18469-.08659.24925.00406.06579.09242-.04508.13545-.09523.1932-.09978.11482-.34039.2025-.2264.37537.13252.201.33157.03512.48972-.04055a5.611,5.611,0,0,1,1.75534-.50754.76791.76791,0,0,0,.67614-.48058c.35457-.768.93205-.744,1.16431-1.55989a6.8048,6.8048,0,0,0,.14953-1.05634,10.12374,10.12374,0,0,1,.23649-1.53847.56679.56679,0,0,0-.02538-.41994A5.794,5.794,0,0,0,20.2613,41.896a2.88033,2.88033,0,0,1-.55466-.93354c-.06755-.13718-.26564-.46293-.32493-.60369a1.41509,1.41509,0,0,0-.52642-.69287c-.29449-.18134-.10232-.13518-.35032-.40834-.09976-.10989-.28-.33249-.17846-.4766a4.45263,4.45263,0,0,0,.88605-1.75082,2.126,2.126,0,0,1,.40413-.909,1.42352,1.42352,0,0,0,.20434-.37319,3.34029,3.34029,0,0,1,.60087-.6926,3.42873,3.42873,0,0,1,.68027-.736,1.83571,1.83571,0,0,0,.32016-.472c.12148-.21417.2319-.41873.33612-.6291.3464-.69938.79372-1.34448,1.086-2.0739a24.47475,24.47475,0,0,0,.94272-3.35145,11.22357,11.22357,0,0,1,.55464-1.77643,9.02939,9.02939,0,0,0,.16776-.99144,4.269,4.269,0,0,1,.81965-1.27935,8.75234,8.75234,0,0,0,.91816-1.98814,12.58643,12.58643,0,0,1,.93154-1.91809l.00836-.01611.01509-.02274a6.97426,6.97426,0,0,1,.46433-.662,11.48392,11.48392,0,0,0,1.0074-1.41586.10224.10224,0,0,1,.01741-.02808,5.65971,5.65971,0,0,0,.296-.59172c.239-.563.37278-.95868.64387-1.49815C29.68658,15.49488,29.6224,15.41925,29.52894,15.35006Z"/>
    <path class="cls-2" d="M55.03522,16.84051,48.34711,32l6.68811,15.48585-10.53013,0L38.23832,31.64342l6.26677-15.12931Z"/>
  </g>
</svg>
