<svg id="katman_1" data-name="katman 1" xmlns="http://www.w3.org/2000/svg" width="64" height="64" viewBox="0 0 64 64">
  <defs>
    <style>
      .cls-1 {
        fill: #0f1829;
      }
    </style>
  </defs>
  <g>
    <path class="cls-1" d="M30.38667,14.82142c-.20387.28474-4.143,7.17849-4.29848,7.87029l4.20326,12.5929-8.95108.18116-2.23066,4.15594,1.06937,1.65408,12.18882.11536,2.28844,6.9833h7.81048Z"/>
    <path class="cls-1" d="M29.1867,14.05416a.34524.34524,0,0,0-.45544.00609c-.21315.16977-.41278.35715-.61213.54347-.36126.33767-.7118.518-1.06422.86483a2.99164,2.99164,0,0,1-1.13772.70707,1.77974,1.77974,0,0,0-.94272.9679.62529.62529,0,0,0-.041.46037,1.389,1.389,0,0,1-.43207,1.47384c-.57691.57207-1.05635,1.19045-1.574,1.8145a6.13129,6.13129,0,0,0-1.32877,2.8283,2.05506,2.05506,0,0,1-.65725,1.15381A7.28374,7.28374,0,0,0,19.718,26.2727a10.02343,10.02343,0,0,0-.92316,1.66657c-.12625.29247-.36987.54777-.509.834-.27762.571-.57924.56352-1.32829.91377a3.6303,3.6303,0,0,0-1.87184,1.88385,2.67137,2.67137,0,0,0-.11881.701,6.38845,6.38845,0,0,1-.36609,1.28073,2.99083,2.99083,0,0,1-.96832,1.40368,10.188,10.188,0,0,0-2.54982,3.71491c-.03928.09828-.07608.19749-.11169.29714a6.67574,6.67574,0,0,0-.37039,2.10215c-.0322,1.46251-.75619.22487-2.11459.61886-2.1706.62949-1.69992,4.19075-.06886,4.21789.39069.00649.2819-.04.49807.04792.31083.28679.55546-.31308.82864-.04414.654.50955,1.16941-.15813,1.89235-.14514.9429-.32863-.03487-1.18851.66512-1.63825.2365-.19087.29016-.53649.57958-.70444a.40435.40435,0,0,1,.45391-.0284,2.56965,2.56965,0,0,0,1.72331.27482.59806.59806,0,0,1,.40959.08148q.70051.40144,1.40861.78976c.18482.10193.32887.22682.30805.46-.02256.25307-.21564.34745-.42012.406a3.07288,3.07288,0,0,1-.81957.0418,2.54522,2.54522,0,0,0-1.23572.27275c-.10288.05737-.28867.12708-.19993.28557.07813.13946.19444.32051.41405.24881a2.3175,2.3175,0,0,1,1.1514.05007c-.055.18413-.26638.3199-.09637.47587.14918.13686.32922.04959.48813-.042a5.70145,5.70145,0,0,1,1.06877-.3208c.19362-.0663.30955.0745.34649.25863a.45057.45057,0,0,1-.088.45437c-.31841.383-.32434.17651-.41064.6185-.06245.31977-.18789.37966-.48912.25169a1.4208,1.4208,0,0,1-.23137-.11852.673.673,0,0,0-.80417.03583c-.19539.16173-.20718.16408.00791.329a.35778.35778,0,0,1-.34668.02617,1.664,1.664,0,0,0-1.30156.18247c-.1404.073-.32763.13569-.14953.35752.09578.11933-.05534.13507-.10657.1819-.08582.07855-.24944.13276-.17458.27324.09262.17382.234.03668.34165-.01169a1.95318,1.95318,0,0,1,.56725-.16433c.06407-.00779.14549-.02.17709.04836.03859.08343-.05072.1051-.1.14222-.00866.00653-.02026.00929-.02872.016-.1267.101-.39681.1576-.26259.37054.11528.18291.34414.074.50574-.01676.18131-.10189.34509-.23449.52142-.346.08579-.05421.19906-.09332.26865.00438.0709.09962-.04859.146-.10264.20824-.10754.12375-.36688.21825-.244.40458.14283.21663.35737.03786.52783-.0437a6.04754,6.04754,0,0,1,1.892-.547.82768.82768,0,0,0,.72876-.518c.38216-.82779,1.00459-.80194,1.25492-1.6813a7.33167,7.33167,0,0,0,.16117-1.13856,10.91327,10.91327,0,0,1,.2549-1.65821.61089.61089,0,0,0-.02735-.45262,6.24525,6.24525,0,0,0-1.02541-1.21963,3.10433,3.10433,0,0,1-.59782-1.00619c-.07282-.14786-.28633-.499-.35023-.65068a1.52517,1.52517,0,0,0-.56739-.74679c-.31741-.19546-.11029-.14571-.37758-.44013-.10753-.11844-.30178-.35836-.19235-.51369a4.79939,4.79939,0,0,0,.955-1.8871,2.29139,2.29139,0,0,1,.43558-.97978,1.53443,1.53443,0,0,0,.22025-.40223,3.6001,3.6001,0,0,1,.64763-.74651,3.69569,3.69569,0,0,1,.73322-.79326,1.97923,1.97923,0,0,0,.34508-.50869c.13093-.23084.24994-.45133.36228-.67807.37336-.75381.8555-1.44912,1.17047-2.23532A26.3788,26.3788,0,0,0,22.998,27.46551a12.097,12.097,0,0,1,.59781-1.91469,9.72945,9.72945,0,0,0,.18082-1.06861A4.6012,4.6012,0,0,1,24.66,23.10329a9.43328,9.43328,0,0,0,.98962-2.14289,13.56755,13.56755,0,0,1,1.004-2.06738l.009-.01736c.00483-.00856.01136-.016.01627-.02451a7.51719,7.51719,0,0,1,.50046-.71352,12.37785,12.37785,0,0,0,1.08581-1.52606.11036.11036,0,0,1,.01876-.03027,6.09624,6.09624,0,0,0,.319-.63777c.2576-.60685.4018-1.0333.694-1.61475C29.35661,14.21026,29.28743,14.12874,29.1867,14.05416Z"/>
    <path class="cls-1" d="M56.67818,15.66062,49.46952,32l7.20866,16.69115-11.34971,0L38.574,31.61567l6.75452-16.30685Z"/>
  </g>
</svg>
